PathFileType	4	(X/Y/Z)	C:/ViconProjects/foot_20160225/trc/2_test02_dynamic.trc
DataRate	CameraRate	NumFrames	NumMarkers	Units	OrigDataRate	OrigDataStartFrame	OrigNumFrames
120.000000	120.000000	4	39	mm	120.000000	254	406
Frame#	Time	LFWT			RFWT			VBWT			LKNE			LANK			LMT5			LMT1			LHEL			LTOE			RKNE			RANK			RMT5			RMT1			RHEL			RTOE			T10			FHEAD			THEAD			RHEAD			LBSH			LELB			LOWR			RBSH			RELB			ROWR			LTHI			RTHI			LSHAN			RSHAN			LIHEL			LOHEL			RIHEL			ROHEL			LMT3			LNAVI			LCUNE			RMT3			RNAVI			RCUNE			
		X0	Y0	Z0	X1	Y1	Z1	X2	Y2	Z2	X3	Y3	Z3	X4	Y4	Z4	X5	Y5	Z5	X6	Y6	Z6	X7	Y7	Z7	X8	Y8	Z8	X9	Y9	Z9	X10	Y10	Z10	X11	Y11	Z11	X12	Y12	Z12	X13	Y13	Z13	X14	Y14	Z14	X15	Y15	Z15	X16	Y16	Z16	X17	Y17	Z17	X18	Y18	Z18	X19	Y19	Z19	X20	Y20	Z20	X21	Y21	Z21	X22	Y22	Z22	X23	Y23	Z23	X24	Y24	Z24	X25	Y25	Z25	X26	Y26	Z26	X27	Y27	Z27	X28	Y28	Z28	X29	Y29	Z29	X30	Y30	Z30	X31	Y31	Z31	X32	Y32	Z32	X33	Y33	Z33	X34	Y34	Z34	X35	Y35	Z35	X36	Y36	Z36	X37	Y37	Z37	X38	Y38	Z38	
254	2.116667	-845.313843	33.395531	905.787354	-872.540955	323.734314	906.906921	-635.037964	207.213974	900.382568	-619.674927	25.089041	449.114899	-353.035889	51.361290	131.200638	-412.506409	41.666870	36.563992	-462.005890	114.714188	40.750229	-295.430298	109.323128	156.649170	-491.730957	106.520607	30.452030	-990.898438	337.721710	460.218353	-1082.932007	332.518799	67.061562	-1194.822754	351.682129	68.866676	-1234.006958	281.579895	98.016548	-1032.319824	267.308838	29.105989	-1267.962280	298.808655	111.461067	-651.379089	116.548141	1231.866333	-969.590576	202.582123	1574.441040	-869.647400	211.886642	1671.180786	-753.482727	210.892212	1615.927612	-827.315674	-1.118230	1378.444702	-939.018677	-104.184250	1080.967529	-1173.275879	-34.908340	1000.679871	-762.371765	398.034149	1373.383667	-615.716370	477.758118	1084.416260	-607.016235	483.883270	819.265076	-783.350037	62.816601	563.651306	-1016.019775	285.168701	597.252502	-562.149109	100.805031	315.451294	-1077.489502	261.292877	245.922913	-330.372650	141.348602	140.672546	-314.255066	70.758659	132.672394	-1073.859009	238.028091	43.333511	-1061.032349	311.452240	35.775230	-451.772247	75.018738	35.300419	-398.633453	141.398132	97.828163	-364.307037	46.622688	67.555420	-1225.712158	316.752838	89.111778	-1140.770508	243.116501	79.174202	-1134.780273	339.432892	49.723560
255	2.125000	-860.642212	35.690331	904.586853	-887.697632	325.263306	907.207458	-650.010193	210.031052	898.987061	-633.946533	23.241541	448.783661	-359.976715	48.756432	136.133926	-414.270599	41.270649	37.200909	-462.918304	114.466476	40.478981	-304.567657	107.092468	164.774429	-491.803314	106.630943	30.471889	-1002.781921	339.553864	457.665863	-1089.995850	332.277313	66.982826	-1200.401978	352.548370	58.869930	-1243.444336	281.611420	87.241783	-1036.414185	267.521942	34.162121	-1275.600830	301.464996	96.377449	-665.103943	118.370110	1230.609741	-982.131104	204.090393	1574.295776	-882.226624	213.146683	1671.026001	-765.748779	212.881378	1615.397583	-839.858765	1.062910	1377.591797	-950.449280	-102.394417	1079.262573	-1184.770142	-33.275311	998.409119	-775.762573	400.135254	1372.472168	-630.285767	479.870605	1082.675903	-622.505310	485.412872	817.615356	-798.589844	60.719429	562.192566	-1029.276611	287.038513	593.778870	-575.154419	97.687263	315.233093	-1087.739258	261.213165	245.021057	-339.392120	138.526901	147.784790	-322.169891	68.332443	139.414841	-1078.660156	237.853470	43.591621	-1065.736938	311.478851	38.180660	-452.484344	75.043129	35.051090	-404.886169	138.578949	101.479736	-367.448425	45.189240	70.621017	-1232.595215	316.176483	78.920433	-1148.216553	242.378464	73.191551	-1141.300659	339.714294	45.671700
256	2.133333	-876.250610	37.883629	903.573303	-902.367859	327.049255	907.526306	-664.417725	212.475143	898.282776	-649.162415	21.473520	448.575409	-368.331543	46.337341	141.722351	-416.834229	40.480339	38.306351	-464.769836	114.341988	40.456020	-316.232056	104.362961	173.430695	-491.898407	106.682030	30.596569	-1017.886414	341.810211	458.477203	-1100.646973	332.933502	68.908813	-1204.338379	351.906525	53.486721	-1248.045166	278.582367	78.942574	-1038.827271	268.115509	36.657749	-1283.055176	298.159058	86.662148	-678.367371	120.685738	1229.436890	-994.688721	205.801636	1574.888916	-894.590454	214.942444	1671.544678	-777.817688	214.456390	1615.612183	-852.952454	2.592000	1376.929443	-962.067566	-101.265480	1077.778198	-1195.707642	-31.964701	996.211182	-788.845764	402.136993	1371.843140	-644.904724	481.868134	1081.269531	-639.029114	487.298737	816.242981	-814.813232	58.084259	561.085876	-1043.221069	289.063965	589.704529	-589.243408	94.747543	314.589417	-1096.422363	260.554291	244.794174	-350.339569	135.674957	155.145355	-332.811707	64.050751	148.723175	-1081.449951	238.155945	42.551140	-1069.007080	312.703491	37.761490	-454.213226	74.486412	34.630402	-413.794617	135.157669	105.203796	-372.445740	43.597832	74.617393	-1238.044067	313.895508	71.218697	-1151.746094	241.825455	69.648407	-1143.489990	338.827789	42.675121
257	2.141667	-891.271240	40.553501	902.829590	-916.719604	328.798370	908.150208	-679.007507	215.356873	897.554382	-666.083923	19.149210	447.652527	-378.926392	43.463020	147.224915	-419.481018	40.102829	39.074970	-466.188446	113.600319	39.612461	-329.365723	101.936653	181.956970	-491.886047	106.494453	30.201719	-1032.425903	342.010498	462.368835	-1102.919678	334.650665	69.424294	-1208.536743	348.898926	47.924480	-1253.653198	277.031860	71.872841	-1039.415527	269.684448	36.121639	-1288.559448	293.445984	76.088379	-691.503784	122.690903	1228.940796	-1007.484619	207.370300	1575.788086	-907.262817	216.386597	1672.194336	-790.909607	216.153107	1616.566162	-865.913940	3.896050	1376.979980	-973.275330	-99.819527	1076.664185	-1206.304810	-30.790039	993.249451	-802.423340	404.501648	1371.341309	-660.254211	483.911835	1079.764038	-655.840332	489.212341	814.524475	-831.501038	55.919140	560.293701	-1058.755249	290.535126	586.588745	-603.691040	92.013367	313.529419	-1104.149048	260.209320	244.264862	-362.350739	132.989182	162.483307	-343.941956	61.722038	155.737335	-1082.389771	238.952911	42.993488	-1074.065308	310.896484	38.990582	-456.383942	74.301529	34.204659	-422.642517	133.305862	109.100342	-378.182648	42.025440	79.109901	-1241.723633	312.928192	63.297081	-1154.853027	241.691193	66.197670	-1146.460083	339.508759	41.354321
